<?xml version="1.0" encoding="utf-8"?>
<!-- Generator: Adobe Illustrator 19.1.0, SVG Export Plug-In . SVG Version: 6.00 Build 0)  -->
<svg version="1.1" id="Layer_1" xmlns="http://www.w3.org/2000/svg" xmlns:xlink="http://www.w3.org/1999/xlink" x="0px" y="0px"
	 viewBox="0 0 297.9 289.3" style="enable-background:new 0 0 297.9 289.3;" xml:space="preserve">
<style type="text/css">
	.st0{fill:#010101;}
	.st1{fill:#FFFFFF;}
</style>
<path class="st0" d="M265.7,289.3H30.6c-17.7,0-32.2-14.5-32.2-32.2V32.2C-1.6,14.5,12.9,0,30.6,0h235.1c17.7,0,32.2,14.5,32.2,32.2
	v224.9C297.9,274.8,283.4,289.3,265.7,289.3z"/>
<g>
	<path class="st1" d="M69.4,48.4h93.1c20.4,0,39.4,10.3,48.9,27.2c10.4,18.6,13.1,45.4-21.7,76.2c-2.4,2.2-5.7,3.4-9,3.4H90.3
		c-7.2,0-13-5.4-12.9-12.1l0-2.3c0-6.8,6.1-19,13.4-18.8l80.2-1.3c9.9,3.7,20.5-33.5-4.7-39.6l-77.2-0.4
		C85.5,80.5,69.3,48.4,69.4,48.4z"/>
	<path class="st1" d="M90.5,135.4l114.1,3c12.1,2.4,21.5,6.5,29.9,13.8c16.6,14.5,24.4,59.5-9.2,83.1c-5.4,3.8-20,5.6-24.5,5.6H69.4
		l0.4-30.4l130.6,1.3c8.5-0.8,12.8-15.2,10.8-27.8c-1.5-9.4-11.3-17.1-21.4-17.2L90,166.1c-8.6-0.1-15.5-6.2-15.7-13.9l0-2.4
		C74.1,141.7,81.5,135.2,90.5,135.4z"/>
	<rect x="69.4" y="48.4" class="st1" width="44" height="192.5"/>
</g>
</svg>
