<?xml version="1.0" encoding="utf-8"?>
<!-- Generator: Adobe Illustrator 19.1.0, SVG Export Plug-In . SVG Version: 6.00 Build 0)  -->
<svg version="1.1" id="Layer_1" xmlns="http://www.w3.org/2000/svg" xmlns:xlink="http://www.w3.org/1999/xlink" x="0px" y="0px"
	 viewBox="0 0 299.5 289" style="enable-background:new 0 0 299.5 289;" xml:space="preserve">
<style type="text/css">
	.st0{fill:#0C599C;}
	.st1{fill:#FFFFFF;}
</style>
<g>
	<path class="st0" d="M267.3,289.3H32.2C14.5,289.3,0,274.8,0,257.1V32.2C0,14.5,14.5,0,32.2,0h235.1c17.7,0,32.2,14.5,32.2,32.2
		v224.9C299.5,274.8,285,289.3,267.3,289.3z"/>
	<path class="st1" d="M195,79V44.9c0,0-72.5-15.5-79.1,39.4v38.3H88.3v38.6h27.6v104.1h39.7V160.6l39.4-0.2v-36.8h-39.7V96.8
		c0,0-2.8-17.3,16.6-17.8C178.9,78.9,195,79,195,79z"/>
</g>
</svg>
