<?xml version="1.0" encoding="utf-8"?>
<!-- Generator: Adobe Illustrator 19.1.0, SVG Export Plug-In . SVG Version: 6.00 Build 0)  -->
<svg version="1.1" id="Layer_1" xmlns="http://www.w3.org/2000/svg" xmlns:xlink="http://www.w3.org/1999/xlink" x="0px" y="0px"
	 viewBox="0 0 299.5 289.3" style="enable-background:new 0 0 299.5 289.3;" xml:space="preserve">
<style type="text/css">
	.st0{fill:#0C599C;}
	.st1{fill:#FFFFFF;stroke:#000000;stroke-miterlimit:10;}
</style>
<path class="st0" d="M267.3,289.3H32.2C14.5,289.3,0,274.8,0,257.1V32.2C0,14.5,14.5,0,32.2,0h235.1c17.7,0,32.2,14.5,32.2,32.2
	v224.9C299.5,274.8,285,289.3,267.3,289.3z"/>
<path class="st1" d="M151.8,112.3c0,0,25.3-92.5,83.9-30.5l14.7-14.3v18.8l9.5,9.3h-17.1c0,0-3,184-191.1,122c0,0,45.5,1,68.8-23.6
	c0,0-58.9-21.2-74.8-54.4h21.2c0,0-24.3-8.6-27.3-30.2l21.2,1c0,0-25.3-5.7-14.2-49.9C46.6,60.4,72.9,103.5,151.8,112.3z"/>
</svg>
