<?xml version="1.0" encoding="utf-8"?>
<!-- Generator: Adobe Illustrator 19.1.0, SVG Export Plug-In . SVG Version: 6.00 Build 0)  -->
<svg version="1.1" id="Layer_1" xmlns="http://www.w3.org/2000/svg" xmlns:xlink="http://www.w3.org/1999/xlink" x="0px" y="0px"
	 viewBox="0 0 299.5 289.3" style="enable-background:new 0 0 299.5 289.3;" xml:space="preserve">
<style type="text/css">
	.st0{fill:#0C599C;}
	.st1{fill:#FFFFFF;}
</style>
<g>
	<path class="st0" d="M267.3,289.3H32.2C14.5,289.3,0,274.8,0,257.1V32.2C0,14.5,14.5,0,32.2,0h235.1c17.7,0,32.2,14.5,32.2,32.2
		v224.9C299.5,274.8,285,289.3,267.3,289.3z"/>
	<circle class="st1" cx="71.3" cy="70.9" r="22.4"/>
	<polygon class="st1" points="50.7,106.7 50.7,237.4 94.2,237.4 94.2,106.2 	"/>
	<path class="st1" d="M118.3,106.7V238h43.6v-82c0,0,24.6-41.8,45.3,0.6l1.7,80.8h41.8v-83.7c0,0-20.1-87.1-88.8-31.5v-15.5H118.3z"
		/>
</g>
</svg>
