<?xml version="1.0" encoding="utf-8"?>
<!-- Generator: Adobe Illustrator 19.1.0, SVG Export Plug-In . SVG Version: 6.00 Build 0)  -->
<svg version="1.1" id="Layer_1" xmlns="http://www.w3.org/2000/svg" xmlns:xlink="http://www.w3.org/1999/xlink" x="0px" y="0px"
	 viewBox="0 0 298.5 289.3" style="enable-background:new 0 0 298.5 289.3;" xml:space="preserve">
<style type="text/css">
	.st0{fill:#010101;}
	.st1{fill:#FFFFFF;}
</style>
<path class="st0" d="M267.3,289.3H32.2C14.5,289.3,0,274.8,0,257.1V32.2C0,14.5,14.5,0,32.2,0h235.1c17.7,0,32.2,14.5,32.2,32.2
	v224.9C299.5,274.8,285,289.3,267.3,289.3z"/>
<path class="st1" d="M208.9,30.2l-94.6-0.6l-0.9,29.3c0,0-33.2,5.8-34.1,43.8c-1,38.1,28.1,45.2,46.6,45.6l-0.9,17.1
	c0,0-53.1-0.7-57.9,51.5c-4.9,52.2,64.3,49.8,64.3,49.8s73.2,9.2,74.7-57.6c0,0-5-39.2-40.6-45.5l0.1-17.8c0,0,55.1-12.6,28.3-75.6
	h15V30.2z M175.4,217.4c0,15.8-16.8,28.7-37.6,28.7c-20.7,0-37.5-12.9-37.5-28.7c0-15.9,16.8-28.8,37.5-28.8
	C158.6,188.7,175.4,201.5,175.4,217.4z"/>
<ellipse class="st0" cx="136.4" cy="102" rx="31.3" ry="28"/>
<polygon class="st1" points="201.2,142.2 201.2,160.5 237,160.5 237,193.4 254.7,193.4 254.7,160.5 286.3,160.5 286.3,142.2 
	255.1,142.2 255.1,109.5 235.7,109.5 235.7,142.2 "/>
</svg>
