<?xml version="1.0" encoding="utf-8"?>
<!-- Generator: Adobe Illustrator 19.1.0, SVG Export Plug-In . SVG Version: 6.00 Build 0)  -->
<svg version="1.1" id="Layer_1" xmlns="http://www.w3.org/2000/svg" xmlns:xlink="http://www.w3.org/1999/xlink" x="0px" y="0px"
	 viewBox="0 0 298.6 289.3" style="enable-background:new 0 0 298.6 289.3;" xml:space="preserve">
<style type="text/css">
	.st0{fill:#010101;}
	.st1{fill:#FFFFFF;stroke:#000000;stroke-miterlimit:10;}
</style>
<path class="st0" d="M266.4,289.3H31.2c-17.7,0-32.2-14.5-32.2-32.2V32.2C-0.9,14.5,13.5,0,31.2,0h235.1c17.7,0,32.2,14.5,32.2,32.2
	v224.9C298.6,274.8,284.1,289.3,266.4,289.3z"/>
<path class="st1" d="M152.9,120.2c0,0,25.3-95.1,83.9-31.3l14.7-14.7v19.3l9.5,9.5h-17.1c0,0-3,189-191.1,125.3
	c0,0,45.5,1,68.8-24.3c0,0-58.9-21.8-74.8-55.9h21.2c0,0-24.3-8.8-27.3-31.1l21.2,1c0,0-25.3-5.9-14.2-51.3
	C47.7,66.9,74,111.1,152.9,120.2z"/>
</svg>
